<svg width="101" height="87" viewBox="0 0 101 87" fill="none" xmlns="http://www.w3.org/2000/svg">
<path opacity="0.68" d="M3.44453 14.3628H3.32239C3.18046 14.361 3.04502 14.3037 2.94564 14.2033C2.84625 14.1029 2.791 13.9676 2.79193 13.827V12.1332C2.7924 12.0632 2.77881 11.9938 2.75197 11.929C2.72512 11.8642 2.68555 11.8053 2.63555 11.7558C2.58555 11.7063 2.52612 11.6671 2.46071 11.6405C2.39529 11.6139 2.3252 11.6004 2.25449 11.6009H0.537483C0.466315 11.6009 0.395854 11.5869 0.33019 11.5597C0.264526 11.5325 0.204966 11.4927 0.154968 11.4425C0.10497 11.3924 0.0655292 11.3329 0.0389345 11.2675C0.0123399 11.2021 -0.000878939 11.1321 4.53283e-05 11.0616V10.9372C4.53283e-05 10.796 0.0566681 10.6606 0.157457 10.5608C0.258246 10.4609 0.394946 10.4048 0.537483 10.4048H2.24402C2.31472 10.4067 2.38509 10.3946 2.45103 10.3693C2.51698 10.3439 2.57718 10.3059 2.62816 10.2573C2.67913 10.2088 2.71986 10.1507 2.74798 10.0864C2.77609 10.0221 2.79103 9.95292 2.79193 9.88287V8.19251C2.79193 8.12231 2.80595 8.0528 2.83317 7.98799C2.8604 7.92318 2.9003 7.86434 2.95058 7.81486C3.00085 7.76538 3.06051 7.72624 3.12612 7.69969C3.19173 7.67315 3.26199 7.65971 3.33286 7.66017H3.455C3.52571 7.65971 3.59581 7.67316 3.66122 7.69975C3.72663 7.72634 3.78607 7.76554 3.83606 7.81506C3.88606 7.86459 3.92563 7.92346 3.95248 7.98825C3.97932 8.05304 3.99291 8.12247 3.99244 8.19251V9.88287C3.99244 9.95336 4.00657 10.0232 4.03401 10.0882C4.06145 10.1532 4.10167 10.2122 4.15231 10.2618C4.20296 10.3113 4.26303 10.3504 4.32905 10.3767C4.39506 10.403 4.4657 10.4161 4.53686 10.4152H6.2434C6.38594 10.4152 6.52264 10.4713 6.62343 10.5711C6.72422 10.671 6.78084 10.8064 6.78084 10.9476V11.0616C6.78084 11.2028 6.72422 11.3382 6.62343 11.4381C6.52264 11.5379 6.38594 11.594 6.2434 11.594H4.53686C4.46599 11.5935 4.39573 11.6069 4.33012 11.6335C4.26451 11.66 4.20485 11.6992 4.15458 11.7487C4.1043 11.7981 4.0644 11.857 4.03717 11.9218C4.00995 11.9866 3.99593 12.0561 3.99593 12.1263V13.827C3.99691 13.8986 3.98324 13.9695 3.95575 14.0357C3.92825 14.1018 3.8875 14.1617 3.83596 14.2118C3.78441 14.2619 3.72315 14.3011 3.65587 14.327C3.58859 14.353 3.5167 14.3652 3.44453 14.3628V14.3628Z" fill="#F46800"/>
<path opacity="0.75" d="M98.7846 69.1355H98.7008C98.6083 69.1355 98.5195 69.0991 98.4541 69.0342C98.3886 68.9694 98.3519 68.8815 98.3519 68.7898V67.6629C98.3519 67.5712 98.3151 67.4833 98.2496 67.4185C98.1842 67.3536 98.0954 67.3172 98.0029 67.3172H96.8617C96.7691 67.3172 96.6804 67.2808 96.6149 67.216C96.5495 67.1512 96.5127 67.0632 96.5127 66.9716V66.8886C96.5127 66.7969 96.5495 66.709 96.6149 66.6442C96.6804 66.5793 96.7691 66.5429 96.8617 66.5429H98.0029C98.0954 66.5429 98.1842 66.5065 98.2496 66.4417C98.3151 66.3768 98.3519 66.2889 98.3519 66.1972V65.0669C98.3519 64.9752 98.3886 64.8873 98.4541 64.8224C98.5195 64.7576 98.6083 64.7212 98.7008 64.7212H98.7846C98.8771 64.7212 98.9659 64.7576 99.0314 64.8224C99.0968 64.8873 99.1336 64.9752 99.1336 65.0669V66.1972C99.1336 66.2889 99.1704 66.3768 99.2358 66.4417C99.3012 66.5065 99.39 66.5429 99.4826 66.5429H100.624C100.716 66.5429 100.805 66.5793 100.871 66.6442C100.936 66.709 100.973 66.7969 100.973 66.8886V66.9716C100.973 67.0632 100.936 67.1512 100.871 67.216C100.805 67.2808 100.716 67.3172 100.624 67.3172H99.4826C99.39 67.3172 99.3012 67.3536 99.2358 67.4185C99.1704 67.4833 99.1336 67.5712 99.1336 67.6629V68.7898C99.1336 68.8815 99.0968 68.9694 99.0314 69.0342C98.9659 69.0991 98.8771 69.1355 98.7846 69.1355Z" fill="#F46800"/>
<path opacity="0.75" d="M91.5418 81.1305H91.4616C91.369 81.1305 91.2803 81.0941 91.2148 81.0292C91.1494 80.9644 91.1126 80.8765 91.1126 80.7848V79.6441C91.1126 79.5524 91.0758 79.4645 91.0104 79.3996C90.9449 79.3348 90.8562 79.2984 90.7636 79.2984H89.6224C89.5299 79.2984 89.4411 79.262 89.3757 79.1972C89.3102 79.1323 89.2734 79.0444 89.2734 78.9527V78.8698C89.2734 78.7781 89.3102 78.6902 89.3757 78.6253C89.4411 78.5605 89.5299 78.5241 89.6224 78.5241H90.7357C90.8282 78.5241 90.917 78.4877 90.9825 78.4228C91.0479 78.358 91.0847 78.2701 91.0847 78.1784V77.0515C91.0847 76.9598 91.1214 76.8719 91.1869 76.8071C91.2523 76.7422 91.3411 76.7058 91.4337 76.7058H91.5139C91.6065 76.7058 91.6953 76.7422 91.7607 76.8071C91.8261 76.8719 91.8629 76.9598 91.8629 77.0515V78.1231C91.8629 78.2148 91.8997 78.3027 91.9651 78.3675C92.0306 78.4324 92.1193 78.4688 92.2119 78.4688H93.3531C93.4456 78.4688 93.5344 78.5052 93.5999 78.57C93.6653 78.6348 93.7021 78.7228 93.7021 78.8144V78.8974C93.7021 78.9891 93.6653 79.077 93.5999 79.1418C93.5344 79.2067 93.4456 79.2431 93.3531 79.2431H92.2119C92.1193 79.2431 92.0306 79.2795 91.9651 79.3443C91.8997 79.4092 91.8629 79.4971 91.8629 79.5888V80.7191C91.8725 80.7674 91.8715 80.8172 91.86 80.8651C91.8486 80.913 91.8269 80.958 91.7965 80.9969C91.7661 81.0358 91.7277 81.0679 91.6838 81.0909C91.6398 81.114 91.5915 81.1275 91.5418 81.1305Z" fill="#F46800"/>
<path d="M79.9912 0.345703H25.5005C23.4961 0.345703 21.8711 1.95526 21.8711 3.94074V77.646C21.8711 79.6315 23.4961 81.2411 25.5005 81.2411H79.9912C81.9957 81.2411 83.6207 79.6315 83.6207 77.646V3.94074C83.6207 1.95526 81.9957 0.345703 79.9912 0.345703Z" fill="#FFE2D2"/>
<path d="M79.995 0.691356C80.8642 0.693185 81.6972 1.03623 82.3114 1.6453C82.9257 2.25438 83.2711 3.07981 83.272 3.94072V77.6494C83.2711 78.51 82.9255 79.3351 82.3112 79.9436C81.6968 80.5522 80.8639 80.8944 79.995 80.8954H25.5009C24.6318 80.8944 23.7984 80.5523 23.1835 79.9438C22.5686 79.3354 22.2223 78.5103 22.2204 77.6494V3.94072C22.2214 3.07922 22.5673 2.25326 23.1823 1.64408C23.7973 1.03491 24.6312 0.692271 25.5009 0.691356H79.995ZM79.995 1.51893e-06H25.5009C24.9783 -0.000453141 24.4608 0.101166 23.9779 0.299045C23.495 0.496923 23.0562 0.787177 22.6867 1.1532C22.3172 1.51922 22.0241 1.95382 21.8244 2.43213C21.6246 2.91045 21.522 3.42309 21.5225 3.94072V77.6494C21.5243 78.6931 21.9444 79.6933 22.6904 80.4303C23.4364 81.1672 24.4473 81.5807 25.5009 81.5798H79.995C81.0493 81.5798 82.0603 81.165 82.8058 80.4266C83.5512 79.6882 83.97 78.6868 83.97 77.6425V3.94072C83.9704 3.42338 83.868 2.91102 83.6684 2.43293C83.4689 1.95484 83.1761 1.5204 82.807 1.15442C82.4378 0.788446 81.9995 0.49812 81.517 0.300038C81.0345 0.101956 80.5173 1.31954e-06 79.995 1.51893e-06V1.51893e-06Z" fill="#FF7600"/>
<path d="M74.4951 5.75903H20.0045C18 5.75903 16.375 7.36859 16.375 9.35407V83.0593C16.375 85.0448 18 86.6544 20.0045 86.6544H74.4951C76.4996 86.6544 78.1246 85.0448 78.1246 83.0593V9.35407C78.1246 7.36859 76.4996 5.75903 74.4951 5.75903Z" fill="#FFE2D2"/>
<path d="M74.4945 6.10469C75.3642 6.1056 76.1981 6.44824 76.8131 7.05741C77.4281 7.66659 77.774 8.49255 77.775 9.35405V83.0628C77.7731 83.9237 77.4268 84.7487 76.8119 85.3572C76.197 85.9656 75.3636 86.3078 74.4945 86.3087H20.0003C19.1315 86.3078 18.2985 85.9655 17.6842 85.357C17.0698 84.7484 16.7243 83.9234 16.7234 83.0628V9.35405C16.7243 8.49314 17.0697 7.66771 17.684 7.05863C18.2982 6.44955 19.1312 6.10651 20.0003 6.10469H74.4945V6.10469ZM74.4945 5.41333H20.0003C19.4781 5.41333 18.9609 5.51529 18.4784 5.71337C17.9959 5.91145 17.5575 6.20178 17.1884 6.56775C16.8192 6.93373 16.5265 7.36817 16.327 7.84626C16.1274 8.32435 16.0249 8.83671 16.0254 9.35405V83.0628C16.0254 84.107 16.4442 85.1085 17.1896 85.8468C17.9351 86.5852 18.9461 87 20.0003 87H74.4945C75.0168 87.0005 75.534 86.899 76.0167 86.7013C76.4994 86.5037 76.938 86.2137 77.3075 85.8481C77.6769 85.4824 77.97 85.0482 78.17 84.5703C78.37 84.0924 78.4729 83.5801 78.4729 83.0628V9.35405C78.4734 8.83642 78.3708 8.32378 78.171 7.84546C77.9713 7.36715 77.6782 6.93255 77.3087 6.56653C76.9392 6.20051 76.5004 5.91025 76.0175 5.71238C75.5346 5.5145 75.0171 5.41288 74.4945 5.41333V5.41333Z" fill="#FF7600"/>
<path d="M67.2426 15.7388H27.2524C26.1287 15.7388 25.2178 16.641 25.2178 17.7541V36.0335C25.2178 37.1465 26.1287 38.0488 27.2524 38.0488H67.2426C68.3663 38.0488 69.2772 37.1465 69.2772 36.0335V17.7541C69.2772 16.641 68.3663 15.7388 67.2426 15.7388Z" fill="#FFE2D2"/>
<path d="M67.243 16.0844C67.4643 16.0844 67.6835 16.1276 67.888 16.2115C68.0926 16.2954 68.2784 16.4184 68.4349 16.5734C68.5914 16.7285 68.7156 16.9125 68.8003 17.1151C68.885 17.3177 68.9286 17.5348 68.9286 17.754V36.03C68.9286 36.2492 68.885 36.4664 68.8003 36.6689C68.7156 36.8715 68.5914 37.0555 68.4349 37.2106C68.2784 37.3656 68.0926 37.4886 67.888 37.5725C67.6835 37.6564 67.4643 37.6996 67.243 37.6996H27.2527C26.8057 37.6996 26.3769 37.5237 26.0608 37.2106C25.7447 36.8975 25.5671 36.4728 25.5671 36.03V17.754C25.5671 17.3112 25.7447 16.8866 26.0608 16.5734C26.3769 16.2603 26.8057 16.0844 27.2527 16.0844H67.243ZM67.243 15.3931H27.2527C26.6205 15.3931 26.0143 15.6418 25.5673 16.0846C25.1203 16.5273 24.8691 17.1279 24.8691 17.754V36.03C24.8691 36.6562 25.1203 37.2567 25.5673 37.6994C26.0143 38.1422 26.6205 38.391 27.2527 38.391H67.243C67.8752 38.391 68.4814 38.1422 68.9284 37.6994C69.3754 37.2567 69.6266 36.6562 69.6266 36.03V17.754C69.6266 17.1279 69.3754 16.5273 68.9284 16.0846C68.4814 15.6418 67.8752 15.3931 67.243 15.3931V15.3931Z" fill="#FF7600"/>
<path d="M68.7541 61.8174H25.7416C25.2598 61.8174 24.8691 62.2043 24.8691 62.6816V67.8529C24.8691 68.3302 25.2598 68.7171 25.7416 68.7171H68.7541C69.236 68.7171 69.6266 68.3302 69.6266 67.8529V62.6816C69.6266 62.2043 69.236 61.8174 68.7541 61.8174Z" fill="#FF7600"/>
<path d="M24.8691 45.3181H65.3236" stroke="#FF7600" stroke-miterlimit="10" stroke-linecap="round"/>
<path d="M24.8691 47.8003H65.3236" stroke="#FF7600" stroke-miterlimit="10" stroke-linecap="round"/>
<path d="M24.8691 50.2856H51.3641" stroke="#FF7600" stroke-miterlimit="10" stroke-linecap="round"/>
<path d="M24.8691 52.7676H60.7868" stroke="#FF7600" stroke-miterlimit="10" stroke-linecap="round"/>
<path d="M47.2491 27.7682C49.4907 27.7682 51.3078 25.9683 51.3078 23.748C51.3078 21.5277 49.4907 19.7278 47.2491 19.7278C45.0076 19.7278 43.1904 21.5277 43.1904 23.748C43.1904 25.9683 45.0076 27.7682 47.2491 27.7682Z" fill="#FF7600"/>
<path d="M55.929 37.9105H38.5635C38.7755 35.7752 39.7818 33.7944 41.3866 32.3534C42.9915 30.9124 45.0801 30.1143 47.2462 30.1143C49.4124 30.1143 51.501 30.9124 53.1059 32.3534C54.7107 33.7944 55.717 35.7752 55.929 37.9105V37.9105Z" fill="#FF7600"/>
<path d="M61.8333 32.255C63.0841 32.255 64.0982 31.2505 64.0982 30.0115C64.0982 28.7725 63.0841 27.7681 61.8333 27.7681C60.5824 27.7681 59.5684 28.7725 59.5684 30.0115C59.5684 31.2505 60.5824 32.255 61.8333 32.255Z" fill="#FF7600"/>
<path d="M66.6765 37.9105H56.9922C57.1499 36.7492 57.7276 35.6841 58.6181 34.9128C59.5086 34.1414 60.6514 33.7163 61.8344 33.7163C63.0173 33.7163 64.1601 34.1414 65.0506 34.9128C65.9411 35.6841 66.5188 36.7492 66.6765 37.9105V37.9105Z" fill="#FF7600"/>
<path d="M32.5774 32.255C33.8283 32.255 34.8423 31.2505 34.8423 30.0115C34.8423 28.7725 33.8283 27.7681 32.5774 27.7681C31.3265 27.7681 30.3125 28.7725 30.3125 30.0115C30.3125 31.2505 31.3265 32.255 32.5774 32.255Z" fill="#FF7600"/>
<path d="M37.4187 37.9105H27.7344C27.8921 36.7492 28.4698 35.6841 29.3603 34.9128C30.2508 34.1414 31.3936 33.7163 32.5766 33.7163C33.7595 33.7163 34.9023 34.1414 35.7928 34.9128C36.6833 35.6841 37.261 36.7492 37.4187 37.9105V37.9105Z" fill="#FF7600"/>
</svg>
