<svg width="16" height="16" viewBox="0 0 16 16" fill="none" xmlns="http://www.w3.org/2000/svg">
<path d="M12.1667 3.83333H12.1583M12.1667 0.5H8C7.57333 0.5 7.14667 0.6625 6.82167 0.988333L0.988331 6.82167C0.67588 7.13421 0.500354 7.55806 0.500354 8C0.500354 8.44194 0.67588 8.86579 0.988331 9.17833L6.82167 15.0117C7.13421 15.3241 7.55806 15.4996 8 15.4996C8.44194 15.4996 8.86579 15.3241 9.17833 15.0117L15.0117 9.17833C15.1667 9.02377 15.2896 8.8401 15.3734 8.63789C15.4572 8.43567 15.5002 8.21889 15.5 8V3.83333C15.5 2.94928 15.1488 2.10143 14.5237 1.47631C13.8986 0.851189 13.0507 0.5 12.1667 0.5Z" stroke="#F45123" stroke-linecap="round" stroke-linejoin="round"/>
</svg>
